<mxfile host="app.diagrams.net" modified="2021-11-01T08:37:00.218Z" agent="5.0 (Windows NT 10.0; Win64; x64) AppleWebKit/537.36 (KHTML, like Gecko) Chrome/95.0.4638.54 Safari/537.36" etag="GrvrEjgd_zXPcvAwXCQZ" version="15.5.9" type="github">
  <diagram id="1971-awmFrjjgYymM_86" name="Page-1">
    <mxGraphModel dx="1422" dy="762" grid="0" gridSize="10" guides="1" tooltips="1" connect="1" arrows="1" fold="1" page="1" pageScale="1" pageWidth="413" pageHeight="583" math="0" shadow="0">
      <root>
        <mxCell id="0" />
        <mxCell id="1" parent="0" />
        <mxCell id="Ct0cjQtR0CrbhBRQAS4F-6" value="" style="rounded=1;whiteSpace=wrap;html=1;" vertex="1" parent="1">
          <mxGeometry x="306" y="248" width="311" height="193.75" as="geometry" />
        </mxCell>
        <mxCell id="Ct0cjQtR0CrbhBRQAS4F-16" value="" style="edgeStyle=orthogonalEdgeStyle;rounded=0;orthogonalLoop=1;jettySize=auto;html=1;" edge="1" parent="1" source="Ct0cjQtR0CrbhBRQAS4F-3" target="Ct0cjQtR0CrbhBRQAS4F-4">
          <mxGeometry relative="1" as="geometry" />
        </mxCell>
        <mxCell id="Ct0cjQtR0CrbhBRQAS4F-3" value="" style="shape=image;html=1;verticalAlign=top;verticalLabelPosition=bottom;labelBackgroundColor=#ffffff;imageAspect=0;aspect=fixed;image=https://cdn2.iconfinder.com/data/icons/social-icons-circular-color/512/github-128.png" vertex="1" parent="1">
          <mxGeometry x="44" y="289" width="64" height="64" as="geometry" />
        </mxCell>
        <mxCell id="Ct0cjQtR0CrbhBRQAS4F-17" value="" style="edgeStyle=orthogonalEdgeStyle;rounded=0;orthogonalLoop=1;jettySize=auto;html=1;" edge="1" parent="1" source="Ct0cjQtR0CrbhBRQAS4F-4">
          <mxGeometry relative="1" as="geometry">
            <mxPoint x="280" y="322" as="targetPoint" />
          </mxGeometry>
        </mxCell>
        <mxCell id="Ct0cjQtR0CrbhBRQAS4F-4" value="" style="shape=image;verticalLabelPosition=bottom;labelBackgroundColor=#ffffff;verticalAlign=top;aspect=fixed;imageAspect=0;image=https://avatars.githubusercontent.com/u/44036562?s=280&amp;v=4;" vertex="1" parent="1">
          <mxGeometry x="166" y="290" width="63" height="63" as="geometry" />
        </mxCell>
        <mxCell id="Ct0cjQtR0CrbhBRQAS4F-5" value="" style="shape=image;verticalLabelPosition=bottom;labelBackgroundColor=#ffffff;verticalAlign=top;aspect=fixed;imageAspect=0;image=https://pbs.twimg.com/profile_images/378800000614713932/e0a1ed16854b8f9cac1488f8af41eb0c.png;" vertex="1" parent="1">
          <mxGeometry x="287" y="288" width="76" height="76" as="geometry" />
        </mxCell>
        <mxCell id="Ct0cjQtR0CrbhBRQAS4F-7" value="&#xa;&#xa;&lt;span style=&quot;color: rgb(0, 0, 0); font-family: helvetica; font-size: 12px; font-style: normal; font-weight: 400; letter-spacing: normal; text-align: center; text-indent: 0px; text-transform: none; word-spacing: 0px; background-color: rgb(248, 249, 250); display: inline; float: none;&quot;&gt;cloudWatch,&lt;/span&gt;&lt;br style=&quot;color: rgb(0, 0, 0); font-family: helvetica; font-size: 12px; font-style: normal; font-weight: 400; letter-spacing: normal; text-align: center; text-indent: 0px; text-transform: none; word-spacing: 0px; background-color: rgb(248, 249, 250);&quot;&gt;&lt;span style=&quot;color: rgb(0, 0, 0); font-family: helvetica; font-size: 12px; font-style: normal; font-weight: 400; letter-spacing: normal; text-align: center; text-indent: 0px; text-transform: none; word-spacing: 0px; background-color: rgb(248, 249, 250); display: inline; float: none;&quot;&gt;Load balancer,&lt;/span&gt;&lt;br style=&quot;color: rgb(0, 0, 0); font-family: helvetica; font-size: 12px; font-style: normal; font-weight: 400; letter-spacing: normal; text-align: center; text-indent: 0px; text-transform: none; word-spacing: 0px; background-color: rgb(248, 249, 250);&quot;&gt;&lt;span style=&quot;color: rgb(0, 0, 0); font-family: helvetica; font-size: 12px; font-style: normal; font-weight: 400; letter-spacing: normal; text-align: center; text-indent: 0px; text-transform: none; word-spacing: 0px; background-color: rgb(248, 249, 250); display: inline; float: none;&quot;&gt;&amp;nbsp;auto scaling group&lt;/span&gt;&lt;br style=&quot;color: rgb(0, 0, 0); font-family: helvetica; font-size: 12px; font-style: normal; font-weight: 400; letter-spacing: normal; text-align: center; text-indent: 0px; text-transform: none; word-spacing: 0px; background-color: rgb(248, 249, 250);&quot;&gt;&lt;span style=&quot;color: rgb(0, 0, 0); font-family: helvetica; font-size: 12px; font-style: normal; font-weight: 400; letter-spacing: normal; text-align: center; text-indent: 0px; text-transform: none; word-spacing: 0px; background-color: rgb(248, 249, 250); display: inline; float: none;&quot;&gt;, ...etc&lt;/span&gt;&#xa;&#xa;" style="text;html=1;align=center;verticalAlign=middle;resizable=0;points=[];autosize=1;strokeColor=none;fillColor=none;" vertex="1" parent="1">
          <mxGeometry x="345" y="241" width="111" height="102" as="geometry" />
        </mxCell>
        <mxCell id="Ct0cjQtR0CrbhBRQAS4F-9" value="" style="rounded=1;whiteSpace=wrap;html=1;" vertex="1" parent="1">
          <mxGeometry x="401" y="330" width="185" height="102" as="geometry" />
        </mxCell>
        <mxCell id="Ct0cjQtR0CrbhBRQAS4F-10" value="" style="outlineConnect=0;dashed=0;verticalLabelPosition=bottom;verticalAlign=top;align=center;html=1;shape=mxgraph.aws3.ec2;fillColor=#F58534;gradientColor=none;" vertex="1" parent="1">
          <mxGeometry x="379" y="358" width="43" height="50" as="geometry" />
        </mxCell>
        <mxCell id="Ct0cjQtR0CrbhBRQAS4F-35" value="" style="edgeStyle=orthogonalEdgeStyle;rounded=0;orthogonalLoop=1;jettySize=auto;html=1;" edge="1" parent="1" source="Ct0cjQtR0CrbhBRQAS4F-12" target="Ct0cjQtR0CrbhBRQAS4F-33">
          <mxGeometry relative="1" as="geometry" />
        </mxCell>
        <mxCell id="Ct0cjQtR0CrbhBRQAS4F-12" value="" style="shape=image;verticalLabelPosition=bottom;labelBackgroundColor=#ffffff;verticalAlign=top;aspect=fixed;imageAspect=0;image=data:image/png,iVBORw0KGgoAAAANSUhEUgAAANEAAADyCAMAAADk3NBFAAAApVBMVEUAljn///8AlTVCqWIAkCYAjh/B4csAkzAAlDMAjyIAkSsAjyUAjRz5/fvA4Mn1+/fp6emgz63J5NHX691Trm2DwpV2vIqNjY0on02u17rw+fOTyqPU6tvO59aZzaiLi4va2tr09PQ0o1ZktXzm9OtVr29uuYMWm0Tg8OakpKSt1rk4pFmWy6VGqWQAhwBzu4e8vLyZmZnNzc2urq7FxcWqqqrh4eEeE7clAAAKIklEQVR4nOWda1ujPBCGkzQYSGlrq/Sobg/26Ha1urv//6e9YN3aAwmTkFDC+3zYy/1g4S7M48wQJghXTejaJ2BcxRDdtaNu1L4r5FgFELUiFnDGGA9Y1LJ/OPtEbc7RP3Hetn4820Q3fYqORfsdy0e0S/R8HxB0KuLdP1s9pk2iRuT56FK+FzUsHtUi0QbxFJ7PcEIDe4e1RvQwrQt4EtWnD7YObIloOAvPA+gsnMLZ0M6h7RCNOJPyJGJ8ZOXYNoiaS1EAnYXTsmnh6OaJVi8Xji289YKXlfHjmyYadlMdWyTf65oOJ8NEbZYdQKdizHBiZJSouaTZCBeiS6OJkUGi1daDBtCpSDg3mBgZI2p1A5UAOhWj5hIjU0THNYOOODOVGJkh6vRlKQ9MwfTRyLmYIHqeaQbQqYhnJDEyQBRRVccWyUhilJtowPIF0Kk4yp0Y5SR6fAkM8iQKtjlbRrmIhmYC6FR+8JqrY5SHaBSYCqBTMfp0FSJozaAj2r8pnOhuC64ZdEQC7cRIj6ilVjPoKK4z9MJJi6gNKLrzi+vVGRpEnb5OzaAjrQasMlFKm9SedMJJkagRhbYD6FRMuQGrRrQh9hxbJNUGrAqRvE1qT/UXlQYsnCizTWpPSg1YMNHIWM2gI4U6A0jUFD5nKErgBiyI6K5WoGOLRIIaqAELIBp2C3ZskfwQ0oDNJmobLVLzCZIYZRF1tNqk9pSdGMmJVvcWitR8It69PJxkRI0oR5vUnlggTYwkRBu/PAF0Kk42GkSPBtqk9lTvCxuwAiJDbVJ7It5MUGekE1035YGJ0fTEKI1ocIWaQUecpCVGl0RxynPtUwUrqF02YM+JWotSOrZIfrA47xidET05EECnumjAnhDdlCzlgYkubwREqyK7PCZFguPE6EDUsN8mtSff6zbOicpUM+jou87YE92VOuWBqd6/+yZqlzzlgYl47X9EUXjtkzGkMNoTDaoCFCMNEqKh25ZwKjaMibpVIuJdjBoupgli0QZqVoyoiSLXUlO5WIRm7uY+afJnaJvrjyvxGfON/nkm+T6PbFFN+/cJr/Pp/HVx3+fUUFnFA1RbzKa8rv1xpKZPRJejQ0n8PJgxmvtScfTzqyroLHS/In0idv50tLXJuyiAjo5apau5Xu6sTVSfpTRqN7nuPX72sHXk6XyKLhGNLnmS66T5xSYKLvrzTzo9KU0iNksFivVT64uNFaS03hYal1yTiIifDWz0EvnU76ilkXHqEVHZkomNVv+Spjaxn9SR9Ii4BChZGan8gaLbWCOL1iISR9Fec/VvVnTV58opmhZR5nvHL8oRfWl0e6nfdlpENGupxBCpfqYnsBr1UkePKHNV7J2qh3uCD7opCxFuKnp4+YnwSC15cIAIz5Ri2gUiPFUxXieIWiqG5wQRvlM4GzeIVAzPESKFDM8VIryAGp4zROAMzx0iqOG5Q4RXsFByiAg3QUmrS0Swjo5TRCDDc4sIYniOEQEMzzEivMq871wjwjdZGZ5zRPgpw8PdI8oyvLISyVbKb6WGV1airYSosZQdp6xEv9KfKu31LDu5shJ5nqx/3JGkQ6UlQqHs5aC2GKm8RIjLXpp+FRpeiYnIUmZ4NZHhlZgIMS3DKzMRol0J0kpwhqUmQnLDS8/wyk2EPKnhpWZ4JSeSG1437STLTiQ3vLQMr+xEcsPDKYZXeiK54T1f/qEtP1GG4V24gwNE8gxvc47kApGa4TlBpGR4ThAhVpMQNZYnD57dIEL8VYL0fHKRHCFCgczwHo8zPFeIkCfrgx0bnjNEiMrGXUTfp+sOkdzw7g+x5A6R3PDwwfAcIpIb3pAR94hQIJsk+hg4SIRCgOG5RQQxPMeIyFI2RvRzLbVjRIi9SIhw33ePCPGFhCgxPOeI5Ib34DlIJM/wBqGDRML3CD4V/XKQiCCZ4Ym6YWUmkmd4ItpSE8kNz0kiFPysGhEKlXdeKDsR4qo7UpWeSG54LhJlZHguEqka3rXfeoMsG1YzPBeIkKdieE4QyTM8J4lUDM8NIhXDc4QI8YzXuN0jQgF06L0zROAMz4G/sIfPgG2t5RAR0PDcuesQ8vtVI4IZnlNEqA4wPLeIPoc2VosIhZmGVxSR4Lsdqg6hISRri4+CiLigxAG+KXqkTMNrFzO5xRd0QDfqU3X4XE6kPgBRbwJSmP5IX324T2x4spdHMC5oApJgYFDK0kaApCttNK667my0tIs00xteF4qRWsXNRmMpixRudHdA8IQ33rw4opR7Rd3oDqLbdBN/1ZnCqD018fyL7eSZAemnPdRszLU+Un+yJT0ett+Ico5wp8vNWWgOiF5Y5pg+6geLr+XCq5/5d0UhlL02D2t1V0/a20TkmaeKGKXL+WzK6mbGaTNaZ9tZtztPPlF/bG0t3xRf4rM8v375eSzvUGCyreCk5epNw67exPJWxYhaFZz8j4dVCqTP3Rmqt4NGlXY5SRpm+51orrbfsEmR8LATDcYPldgtaD/yvKo7OuEK7rqFq7czWqKq7V6XqGo7DOIK7gKZOHnFdupM5M5uqmlPSf4fO97iCu5KjKu3c3Siqu3ujSu4AztOEqPShRPx7uVLDuVE5UuM6FI2ygJClNQZ5XHy75ohDxEedsNyhJMfdrOWC8CIPrcwv344kaAGWrMLIsK4ia7t5HwJXGUIJLp2YsQ4dCEonAgPZ1frGJFwlhVAf8fjv6pEcWI0vU5iVH95kJ/Y5K335+1t3futShQnRleoM/j5XoYXut2jxGC7iSpRnBgV7OTMk6Y8n0A/bv/9+L5TJorrjCI7RiSYy0ZD7bUbx1cp1nqM8dubOlGcGOXdwBIsOs1KeWKN18l9d4snv5Nr1ZtoECXL3opwckjKE+tj/O/G+5FcpHctItyy34D1vS7sHZjd7RfRuDeJI+lNjyiuM7ZWwwkUQHslHLe99XqXGB0eaxPFidHSnpPTPnwq+jq5Rr3x7e36I/7f+299omQ3IDvhxCgogL709v51101+TDD+8zcPER4uLJS4fgAMoC/d7g7OEBteT8e9j/XwYroBG2xhr7186+N3nC1M4h/if9bveYkwHhh9lMaR8rvnsdu9H+A+NHKGS0XG6gyFmuFE63WSd0/ed2/YCJGpBizxMmsGkcZ/ertd7+MzvzNBhHHHQGIUTDNqBrkmk68fzBAliVG+cOJ+9psuMJkiihOjHA1YRjNrBrCMESWJkWY4kRCc8gBkkChJjHTCifYBNQNcRol0FnoAawa4DBPhoVqdAa4Z4DJNFIcTvAFLPFibVEnmieB1BrhNqiQbRHGdASjbdVOeLNkhym7AAtqkmrJEFNcZ0gZsPV/KI5M1orjOED7PyG6T5pBFItyIUp3cz26T5pFNotQGLPHuDaY8KbJLdNmANZzypMg20WmdwdNfPDUq+0S4NWIBZ4zxgI1MpzwpKoAoVucp6kZPtu+3vYohKlLVI/oPvLDD1gwexmUAAAAASUVORK5CYII=;" vertex="1" parent="1">
          <mxGeometry x="538" y="366.72999999999996" width="33.72" height="39.05" as="geometry" />
        </mxCell>
        <mxCell id="Ct0cjQtR0CrbhBRQAS4F-23" value="" style="edgeStyle=orthogonalEdgeStyle;rounded=0;orthogonalLoop=1;jettySize=auto;html=1;" edge="1" parent="1" source="Ct0cjQtR0CrbhBRQAS4F-22" target="Ct0cjQtR0CrbhBRQAS4F-3">
          <mxGeometry relative="1" as="geometry" />
        </mxCell>
        <mxCell id="Ct0cjQtR0CrbhBRQAS4F-22" value="" style="shape=image;html=1;verticalAlign=top;verticalLabelPosition=bottom;labelBackgroundColor=#ffffff;imageAspect=0;aspect=fixed;image=https://cdn4.iconfinder.com/data/icons/logos-and-brands/512/181_Java_logo_logos-128.png" vertex="1" parent="1">
          <mxGeometry x="31" y="387" width="90" height="90" as="geometry" />
        </mxCell>
        <mxCell id="Ct0cjQtR0CrbhBRQAS4F-27" value="" style="edgeStyle=orthogonalEdgeStyle;rounded=0;orthogonalLoop=1;jettySize=auto;html=1;" edge="1" parent="1" source="Ct0cjQtR0CrbhBRQAS4F-26" target="Ct0cjQtR0CrbhBRQAS4F-12">
          <mxGeometry relative="1" as="geometry" />
        </mxCell>
        <mxCell id="Ct0cjQtR0CrbhBRQAS4F-26" value="User&lt;br&gt;" style="sketch=0;outlineConnect=0;fontColor=#232F3E;gradientColor=none;fillColor=#232F3E;strokeColor=none;dashed=0;verticalLabelPosition=bottom;verticalAlign=top;align=center;html=1;fontSize=12;fontStyle=0;aspect=fixed;pointerEvents=1;shape=mxgraph.aws4.users;" vertex="1" parent="1">
          <mxGeometry x="690" y="347.26" width="78" height="78" as="geometry" />
        </mxCell>
        <mxCell id="Ct0cjQtR0CrbhBRQAS4F-28" value="" style="shape=image;verticalLabelPosition=bottom;labelBackgroundColor=#ffffff;verticalAlign=top;aspect=fixed;imageAspect=0;image=https://blog.kakaocdn.net/dn/bSbT2K/btq6yWLwfBO/URiAy6njQXJW7eYRqcAZU1/img.png;" vertex="1" parent="1">
          <mxGeometry x="458.5" y="188" width="70" height="70" as="geometry" />
        </mxCell>
        <mxCell id="Ct0cjQtR0CrbhBRQAS4F-32" value="" style="endArrow=classic;startArrow=classic;html=1;rounded=0;" edge="1" parent="1" source="Ct0cjQtR0CrbhBRQAS4F-9" target="Ct0cjQtR0CrbhBRQAS4F-28">
          <mxGeometry width="50" height="50" relative="1" as="geometry">
            <mxPoint x="680" y="484" as="sourcePoint" />
            <mxPoint x="730" y="434" as="targetPoint" />
            <Array as="points" />
          </mxGeometry>
        </mxCell>
        <mxCell id="Ct0cjQtR0CrbhBRQAS4F-33" value="" style="shape=image;verticalLabelPosition=bottom;labelBackgroundColor=#ffffff;verticalAlign=top;aspect=fixed;imageAspect=0;image=https://pbs.twimg.com/profile_images/1235868806079057921/fTL08u_H_400x400.png;" vertex="1" parent="1">
          <mxGeometry x="454" y="360.26" width="52" height="52" as="geometry" />
        </mxCell>
      </root>
    </mxGraphModel>
  </diagram>
</mxfile>
